<svg width="1280" height="720" viewBox="0 0 1280 720" fill="none" xmlns="http://www.w3.org/2000/svg">
  <rect width="1280" height="720" fill="#283a42"/>
  <rect x="0" y="0" width="1280" height="4" fill="#8ff7ff"/>
  <g opacity="0.95">
    <circle cx="8" cy="28" r="15" fill="#42dce8"/>
    <path d="M7.5 21.8a5.7 5.7 0 0 1 5.7 5.7c0 3.2-2.5 5.8-5.7 5.8a5.7 5.7 0 0 1-5.7-5.8c0-3.1 2.6-5.7 5.7-5.7Zm0 2.2a3.5 3.5 0 0 0-3.5 3.5c0 .7.2 1.4.6 2l4.9-4.9a3.4 3.4 0 0 0-2-.6Zm0 7a3.5 3.5 0 0 0 3.5-3.5c0-.7-.2-1.4-.6-2l-4.9 4.9c.6.4 1.3.6 2 .6Z" fill="#12343c"/>
    <rect x="-6" y="50" width="28" height="28" rx="10" fill="#42dce8"/>
    <path d="M2.8 67.8v-5.2l9.4-9.4 5.2 5.2-9.4 9.4H2.8Zm10-10.9-7.3 7.3v1h1l7.3-7.3-1-1Zm2.6-.6-1.1-1.1 1-1a1.5 1.5 0 0 1 2.1 0l.1.1a1.5 1.5 0 0 1 0 2.1l-1 1-1.1-1.1Z" fill="#12343c"/>
    <path d="M2 92h11m-9 0 .8 13.2c.1 1.5 1.4 2.8 2.9 2.8h.6c1.5 0 2.8-1.3 2.9-2.8L12 92M5.5 92v-2.5c0-.8.7-1.5 1.5-1.5h1c.8 0 1.5.7 1.5 1.5V92" stroke="#eff9fb" stroke-width="1.8" stroke-linecap="round" stroke-linejoin="round"/>
  </g>
  <g filter="url(#softShadow)">
    <text x="640" y="190" text-anchor="middle" fill="#f6fbfc" font-family="Inter, Arial, sans-serif" font-size="31" font-weight="800">Enter <tspan fill="#c7f8fb">Lingjing</tspan><tspan fill="#39dbe8">.</tspan></text>
    <text x="640" y="224" text-anchor="middle" fill="#a8c3cd" font-family="Inter, Arial, sans-serif" font-size="15">Code, reason, analyze, and compose in one focused surface.</text>
  </g>
  <g filter="url(#cardShadow)">
    <rect x="304" y="392" width="430" height="54" rx="13" fill="#3d5159" stroke="#526871"/>
    <rect x="746" y="392" width="430" height="54" rx="13" fill="#3d5159" stroke="#526871"/>
    <rect x="304" y="458" width="430" height="54" rx="13" fill="#3d5159" stroke="#526871"/>
    <rect x="746" y="458" width="430" height="54" rx="13" fill="#3d5159" stroke="#526871"/>
    <text x="519" y="424" text-anchor="middle" fill="#d6e9ee" font-family="Inter, Arial, sans-serif" font-size="13">Break this product idea into an execution plan</text>
    <text x="961" y="424" text-anchor="middle" fill="#d6e9ee" font-family="Inter, Arial, sans-serif" font-size="13">Read this error and explain the root cause</text>
    <text x="519" y="490" text-anchor="middle" fill="#d6e9ee" font-family="Inter, Arial, sans-serif" font-size="13">Summarize this project as a resume-ready experience</text>
    <text x="961" y="490" text-anchor="middle" fill="#d6e9ee" font-family="Inter, Arial, sans-serif" font-size="13">Turn this rough idea into a clearer product spec</text>
  </g>
  <g filter="url(#inputShadow)">
    <rect x="304" y="548" width="872" height="146" rx="15" fill="#3a4f57" stroke="#586d75"/>
    <text x="324" y="578" fill="#8ea2aa" font-family="Inter, Arial, sans-serif" font-size="15">Ask, build, inspect, or upload...</text>
    <rect x="322" y="653" width="27" height="27" rx="9" fill="#34474f" stroke="#5f757d"/>
    <path d="M336 661v9a4 4 0 0 1-8 0v-10a5 5 0 0 1 10 0v9a6 6 0 0 1-12 0v-8" stroke="#ecf7fa" stroke-width="1.2" stroke-linecap="round"/>
    <text x="361" y="671" fill="#c7d5d9" font-family="Inter, Arial, sans-serif" font-size="13">Auto</text>
    <circle cx="1146" cy="666" r="13" fill="#34474f"/>
    <path d="m1146 660 5 5m-5-5-5 5m5-5v11" stroke="#465a62" stroke-width="1.7" stroke-linecap="round" stroke-linejoin="round"/>
  </g>
  <defs>
    <filter id="softShadow" x="440" y="145" width="400" height="100" filterUnits="userSpaceOnUse" color-interpolation-filters="sRGB">
      <feDropShadow dx="0" dy="2" stdDeviation="7" flood-color="#152329" flood-opacity="0.35"/>
    </filter>
    <filter id="cardShadow" x="294" y="382" width="892" height="142" filterUnits="userSpaceOnUse" color-interpolation-filters="sRGB">
      <feDropShadow dx="0" dy="10" stdDeviation="9" flood-color="#16252b" flood-opacity="0.32"/>
    </filter>
    <filter id="inputShadow" x="294" y="538" width="892" height="166" filterUnits="userSpaceOnUse" color-interpolation-filters="sRGB">
      <feDropShadow dx="0" dy="12" stdDeviation="10" flood-color="#152329" flood-opacity="0.32"/>
    </filter>
  </defs>
</svg>
